M48
; DRILL file {KiCad (6.0.4-0)} date 2022 May 15, Sunday 14:25:21
; FORMAT={-:-/ absolute / inch / decimal}
; #@! TF.CreationDate,2022-05-15T14:25:21+03:00
; #@! TF.GenerationSoftware,Kicad,Pcbnew,(6.0.4-0)
; #@! TF.FileFunction,Plated,1,2,PTH
FMAT,2
INCH
; #@! TA.AperFunction,Plated,PTH,ViaDrill
T1C0.0270
; #@! TA.AperFunction,Plated,PTH,ComponentDrill
T2C0.0276
; #@! TA.AperFunction,Plated,PTH,ComponentDrill
T3C0.0315
; #@! TA.AperFunction,Plated,PTH,ComponentDrill
T4C0.0354
; #@! TA.AperFunction,Plated,PTH,ComponentDrill
T5C0.0394
; #@! TA.AperFunction,Plated,PTH,ComponentDrill
T6C0.0433
%
G90
G05
T1
X4.1Y-3.1
X4.15Y-2.8
T2
X3.8Y-2.55
X3.8Y-2.75
X4.1Y-2.25
X4.1Y-2.45
T3
X4.1114Y-3.0
X4.1524Y-2.1
X4.4067Y-3.0
X4.4476Y-2.1
X4.6Y-2.1
X4.8953Y-2.1
T4
X4.4591Y-2.35
X4.4591Y-2.65
X4.6591Y-2.35
X4.6591Y-2.65
T5
X3.6Y-2.1002
X3.6Y-2.2002
X3.6Y-2.3002
X3.6Y-2.4002
X3.6Y-2.5002
X3.6Y-2.8
X3.6Y-2.9
X3.6Y-3.0
X3.9Y-2.2
X3.9Y-2.3
X3.9Y-3.0
X3.9Y-3.1
X4.2Y-2.6
X4.2Y-2.7
T6
X4.6Y-3.0
X4.7Y-3.0
X4.8Y-3.0
T0
M30
